PathFileType	4	(X/Y/Z)	 s01c0401.trc
DataRate	CameraRate	NumFrames	NumMarkers	Units	OrigDataRate	OrigDataStartFrame	OrigNumFrames
200	200	4	48	mm	200	1	2000
Frame#	Time	racr			lacr			c7			jug			rlel			rdr			llel			ldr			s2			lic			ric			lasi			rasi			rpsi			lpsi			rgt			lgt			rth1			rth2			rth3			rth4			rlfc			rsh1			rsh2			rsh3			rsh4			rlmal			rmmal			rcal			rtoe			rmt5			lth1			lth2			lth4			lth3			llfc			lsh1			lsh2			lsh3			lsh4			llmal			lmmal			lcal			ltoe			lmt5			SBIKE			LBIKE			RBIKE			
		X1	Y1	Z1	X2	Y2	Z2	X3	Y3	Z3	X4	Y4	Z4	X5	Y5	Z5	X6	Y6	Z6	X7	Y7	Z7	X8	Y8	Z8	X9	Y9	Z9	X10	Y10	Z10	X11	Y11	Z11	X12	Y12	Z12	X13	Y13	Z13	X14	Y14	Z14	X15	Y15	Z15	X16	Y16	Z16	X17	Y17	Z17	X18	Y18	Z18	X19	Y19	Z19	X20	Y20	Z20	X21	Y21	Z21	X22	Y22	Z22	X23	Y23	Z23	X24	Y24	Z24	X25	Y25	Z25	X26	Y26	Z26	X27	Y27	Z27	X28	Y28	Z28	X29	Y29	Z29	X30	Y30	Z30	X31	Y31	Z31	X32	Y32	Z32	X33	Y33	Z33	X34	Y34	Z34	X35	Y35	Z35	X36	Y36	Z36	X37	Y37	Z37	X38	Y38	Z38	X39	Y39	Z39	X40	Y40	Z40	X41	Y41	Z41	X42	Y42	Z42	X43	Y43	Z43	X44	Y44	Z44	X45	Y45	Z45	X46	Y46	Z46	X47	Y47	Z47	X48	Y48	Z48	
1	0.0050	472.396358	1370.204576	-91.528077	471.437961	1370.528080	-407.712217	430.024581	1427.491301	-240.495896	456.244909	1269.165678	-245.705540	563.402781	1107.643832	-9.234221	712.165023	894.283730	-35.550584	568.734362	1109.855688	-473.599984	709.645606	896.016610	-439.703940	-59.642021	1140.666509	-242.908265	134.414280	1163.438132	-418.586255	105.997096	1135.323632	-90.040378	114.290453	1109.322503	-394.968656	129.660076	1088.241292	-121.728906	-26.292302	1174.522081	-190.341801	-32.538036	1185.110552	-295.064745	45.067327	1014.428187	-65.405846	55.741656	1036.325000	-452.039776	122.245943	901.231105	-49.441042	176.586727	838.334523	-53.058460	231.552105	767.050483	-65.250647	219.885128	872.709218	-63.214074	274.022138	670.217590	-86.582712	191.381625	586.051249	-55.498865	141.987940	516.986194	-59.437332	82.684562	451.134040	-72.090360	178.514805	489.596666	-98.591757	-0.881124	355.508118	-91.413282	NaN	NaN	NaN	-56.767037	338.300950	-145.811008	195.473475	238.172780	-137.027353	88.575749	241.399761	-65.344856	157.288420	953.453616	-463.014999	243.267206	939.359922	-460.074883	254.415420	993.229307	-454.428728	325.560555	917.561219	-445.122404	417.508737	861.437328	-423.914624	NaN	NaN	NaN	320.224196	685.738694	-438.217045	288.332465	607.275324	-421.218055	373.573190	667.953843	-411.823092	246.818665	486.423866	-400.981969	276.963060	498.518203	-318.369236	198.629426	441.476599	-361.398353	475.852066	455.903807	-370.361875	374.039531	422.222663	-436.166994	NaN	NaN	NaN	-11.713925	84.814004	-453.776368	-20.368349	80.998127	-53.542750	
2	0.0100	472.417592	1370.171106	-91.561177	471.427138	1370.496798	-407.731870	430.023261	1427.487432	-240.513799	456.239903	1269.218508	-245.727489	563.411048	1107.620616	-9.231428	712.165159	894.276205	-35.537611	568.709277	1109.865562	-473.655620	709.616423	896.034760	-439.742828	-59.646047	1140.683224	-242.926859	134.416754	1163.445278	-418.618585	105.982942	1135.348592	-90.028437	114.295423	1109.318558	-394.977325	129.670574	1088.273495	-121.720522	-26.281237	1174.535495	-190.357148	-32.505817	1185.114626	-295.096321	45.092275	1014.417173	-65.434837	55.754677	1036.334298	-452.048823	122.260980	901.256766	-49.444771	176.615571	838.354051	-53.076169	231.579771	767.061812	-65.257033	219.911691	872.724895	-63.241874	274.037211	670.260408	-86.591092	191.425191	586.074757	-55.509184	142.020694	517.018240	-59.439709	82.692091	451.166005	-72.113655	178.527568	489.608963	-98.603251	-0.872013	355.555235	-91.436946	NaN	NaN	NaN	-56.764865	338.361083	-145.811587	195.447232	238.196180	-137.021898	88.581011	241.448642	-65.354809	157.302918	953.487618	-462.991106	243.275859	939.394539	-460.018730	254.429641	993.161701	-454.421877	325.575743	917.554798	-445.101350	417.495915	861.405025	-423.905038	NaN	NaN	NaN	320.227572	685.673325	-438.207335	288.339011	607.246783	-421.214202	373.556222	667.929649	-411.800503	246.890946	486.459136	-401.007709	276.916313	498.446705	-318.376837	198.640187	441.433361	-361.413382	475.863604	455.873504	-370.374743	374.102542	421.797043	-435.574923	NaN	NaN	NaN	-11.704158	84.807521	-453.781527	-20.353769	80.982820	-53.557663	
3	0.0150	472.419006	1370.162259	-91.564547	471.421072	1370.510880	-407.751109	430.044241	1427.477655	-240.532167	456.220912	1269.221262	-245.747742	563.412601	1107.607952	-9.233411	712.170419	894.276582	-35.534268	568.707219	1109.858046	-473.695415	709.633590	896.035497	-439.760070	-59.655374	1140.683818	-242.934918	134.441430	1163.207206	-418.696624	105.680222	1135.573146	-89.350604	114.284359	1109.320232	-394.992573	129.666846	1088.289506	-121.723824	-26.274699	1174.549657	-190.373331	-32.902077	1185.270434	-294.898754	45.086326	1014.434595	-65.413439	55.768814	1036.338713	-452.062056	122.270914	901.283084	-49.450984	176.604625	838.387952	-53.076419	231.590831	767.082743	-65.260242	219.896895	872.751598	-63.234899	274.049740	670.279145	-86.590790	191.452904	586.112839	-55.512579	142.047679	517.051504	-59.434504	82.689848	451.206382	-72.113964	178.530474	489.639297	-98.618996	-0.879046	355.588793	-91.428270	NaN	NaN	NaN	-56.764879	338.405690	-145.825160	195.441437	238.203310	-137.033615	88.575888	241.493069	-65.344804	157.311503	953.521177	-462.952169	243.261799	939.392322	-459.982520	254.431509	993.154892	-454.366673	325.554684	917.525333	-445.078283	417.498445	861.376442	-423.885794	NaN	NaN	NaN	320.214888	685.642081	-438.186054	288.335644	607.196805	-421.204058	373.558627	667.893020	-411.800316	247.130796	486.406387	-400.999815	276.941568	498.426418	-318.374299	198.529439	441.480430	-361.463110	475.871708	455.850746	-370.372389	374.255100	421.706326	-435.476541	NaN	NaN	NaN	-11.699355	84.803458	-453.776591	-20.343577	80.977151	-53.558719	
4	0.0200	472.414955	1370.152255	-91.571627	471.411074	1370.482112	-407.792673	430.101014	1426.548159	-240.746056	456.220592	1269.233953	-245.796773	563.291154	1107.601107	-9.146912	712.176437	894.268277	-35.532250	568.716555	1109.849688	-473.738861	709.561991	897.549212	-439.874036	-59.585278	1140.782240	-243.397069	134.460949	1162.962222	-418.768905	105.884354	1135.886040	-88.716724	114.282883	1109.333936	-394.992310	129.661106	1088.315838	-121.729199	-27.338793	1176.069661	-188.895536	-33.220497	1185.398743	-294.742842	45.082906	1014.442815	-65.422725	55.776126	1036.343506	-452.061921	121.883144	900.716606	-49.736077	176.628968	838.398232	-53.084002	231.693198	767.053667	-65.386225	219.972138	872.874694	-63.135581	274.070584	670.308702	-86.596627	191.559383	586.107475	-55.502153	142.052203	517.066800	-59.444857	82.689789	451.252415	-72.109956	179.125610	490.262084	-98.777799	-0.866601	355.612749	-91.438347	NaN	NaN	NaN	-56.772871	338.467454	-145.816920	195.329056	238.269433	-136.928351	88.545834	241.535623	-65.353280	157.321707	953.552871	-462.913628	243.275586	939.410032	-459.931661	255.232632	992.923881	-457.664290	325.548107	917.493309	-445.042875	417.482086	861.353751	-423.870405	NaN	NaN	NaN	327.585649	683.559975	-440.356897	288.332929	607.145800	-421.190470	374.098495	668.106332	-412.686999	247.420752	486.377040	-400.966645	276.982019	498.544500	-318.393920	198.363584	441.536776	-361.502572	475.879953	455.828704	-370.373005	374.388118	421.570975	-435.314596	NaN	NaN	NaN	-11.695229	84.795707	-453.773844	-20.347637	80.994071	-53.545921	
